<?xml version="1.0" encoding="UTF-8"?>
<svg id="Layer_1" xmlns="http://www.w3.org/2000/svg" xmlns:xlink="http://www.w3.org/1999/xlink" version="1.1" viewBox="0 0 800 800">
  <!-- Generator: Adobe Illustrator 29.3.1, SVG Export Plug-In . SVG Version: 2.1.0 Build 151)  -->
  <defs>
    <style>
      .st0, .st1, .st2, .st3 {
        stroke-miterlimit: 10;
      }

      .st0, .st1, .st4, .st3 {
        fill: #fffbf2;
      }

      .st0, .st1, .st3 {
        stroke: #666;
      }

      .st0, .st5, .st3 {
        isolation: isolate;
      }

      .st0, .st3 {
        font-family: AcuminPro-Bold, 'Acumin Pro';
        font-size: 95.6px;
        font-weight: 700;
      }

      .st1 {
        stroke-width: 3.7px;
      }

      .st2 {
        fill: none;
        stroke: #999;
        stroke-width: 7px;
      }

      .st6, .st7 {
        fill: #ccc;
      }

      .st8, .st9 {
        fill: #666;
      }

      .st8, .st10, .st7 {
        fill-rule: evenodd;
      }

      .st3 {
        stroke-width: 3.8px;
      }

      .st10 {
        fill: #999;
      }
    </style>
  </defs>
  <g id="Body">
    <path class="st8" d="M450,0H50C22.4,0,0,22.4,0,50v700c0,27.6,22.4,50,50,50h450V0h-50Z"/>
  </g>
  <g id="Shape">
    <circle class="st6" cx="250" cy="500" r="200"/>
  </g>
  <g id="Shape1" data-name="Shape">
    <circle class="st4" cx="250" cy="500" r="125"/>
  </g>
  <g id="Hole">
    <circle class="st9" cx="250" cy="500" r="25"/>
  </g>
  <g id="Body1" data-name="Body">
    <path class="st7" d="M750,0h-250v800h250c27.6,0,50-22.4,50-50V50c0-27.6-22.4-50-50-50Z"/>
  </g>
  <g id="Btns">
    <path class="st10" d="M125,75c-13.8,0-25,11.2-25,25s11.2,25,25,25,25-11.2,25-25-11.2-25-25-25ZM225,75c-13.8,0-25,11.2-25,25s11.2,25,25,25,25-11.2,25-25-11.2-25-25-25ZM225,175c-13.8,0-25,11.2-25,25s11.2,25,25,25,25-11.2,25-25-11.2-25-25-25ZM125,175c-13.8,0-25,11.2-25,25s11.2,25,25,25,25-11.2,25-25-11.2-25-25-25ZM350,100c-27.6,0-50,22.4-50,50s22.4,50,50,50,50-22.4,50-50-22.4-50-50-50ZM700,125c13.8,0,25-11.2,25-25s-11.2-25-25-25-25,11.2-25,25,11.2,25,25,25ZM600,75c-13.8,0-25,11.2-25,25s11.2,25,25,25,25-11.2,25-25-11.2-25-25-25ZM714,179.3c-4-2.7-8.8-4.3-14-4.3s-10,1.6-14,4.3c-6.7,4.5-11,12.1-11,20.7h0c0,12.1,8.6,22.2,20,24.5,1.6.3,3.3.5,5,.5s3.4-.2,5-.5c11.4-2.3,20-12.4,20-24.5h0c0-8.6-4.4-16.3-11-20.7ZM700,275c-13.8,0-25,11.2-25,25s11.2,25,25,25,25-11.2,25-25-11.2-25-25-25ZM600,275c-13.8,0-25,11.2-25,25s11.2,25,25,25,25-11.2,25-25-11.2-25-25-25ZM614,179.3c-4-2.7-8.8-4.3-14-4.3s-10,1.6-14,4.3c-6.7,4.5-11,12.1-11,20.7h0c0,12.1,8.6,22.2,20,24.5,1.6.3,3.3.5,5,.5s3.4-.2,5-.5c11.4-2.3,20-12.4,20-24.5h0c0-8.6-4.4-16.3-11-20.7Z"/>
  </g>
  <g>
    <path class="st2" d="M213,647.4h-.1v-70h1.6c6.3,0,11.4-4.9,11.4-11.2v-40.7c0-6.3-5.1-11.2-11.4-11.2h-26.7c-6.3,0-11.3,4.9-11.3,11.2v40.7c0,6.3,5,11.2,11.3,11.2h1.8v70h-.2c-11.3,0-20.4,9.4-20.4,20.7v68.8c0,11.3,9.1,20.3,20.4,20.3h23.7c11.3,0,20.5-8.9,20.5-20.3v-68.8c0-11.3-9.2-20.7-20.5-20.7Z"/>
    <path class="st2" d="M81.3,609.7v131.5c0,8.9,7.1,16,16,16h16.9c8.9,0,16-7.1,16-16v-131.5c18.4-9.1,31.3-28.1,31.3-50.1s-10.4-34.6-23.3-44.7c-1.5-1.2-3.5-1.4-5.2-.6-1.7.8-2.8,2.5-2.8,4.4v27.2c0,8.7-7,15.4-15.7,15.4h-17.5c-8.7,0-15.8-6.7-15.8-15.4v-27.2c0-1.9-1.1-3.6-2.8-4.4-1.7-.8-3.7-.6-5.2.6-12.9,10.2-23.4,26.4-23.4,44.8s12.5,41,31.3,50.1Z"/>
  </g>
  <g>
    <path class="st1" d="M557.1,464.9h62c5.2,0,8.2,4.5,8.2,9.7v60.9h-17.4v-52.7h-10v52.7h-15.6v-52.7h-9.7v52.7h-17.4v-70.5Z"/>
    <rect class="st1" x="635.8" y="464.9" width="17.4" height="70.5"/>
    <path class="st1" d="M661.1,464.9h51.2c5.2,0,8.2,4.5,8.2,9.7v52c0,6.7-2.6,8.9-8.9,8.9h-50.9v-44.9h17.4v27.5h24.9v-37.5h-42.3v-16l.4.4Z"/>
    <rect class="st1" x="728.6" y="464.9" width="17.4" height="70.5"/>
  </g>
  <g class="st5">
    <text class="st0" transform="translate(567 660.2)"><tspan x="0" y="0">HID</tspan></text>
    <text class="st3" transform="translate(567 660.2)"><tspan x="0" y="0">HID</tspan></text>
  </g>
</svg>